<svg xmlns="http://www.w3.org/2000/svg" width="416" height="181" viewBox="0 0 416 181">
  <g id="Group_4" data-name="Group 4" transform="translate(-752 -433)">
    <g id="Group_3" data-name="Group 3" transform="translate(-7)">
      <g id="Star_Wars_Death-Star" transform="translate(912 493)">
        <g id="Group_1" data-name="Group 1">
          <g id="Death-Star">
            <circle id="Ellipse_1" data-name="Ellipse 1" cx="1" cy="1" r="1" transform="translate(34 26)" fill="none" stroke="#ff9e64" stroke-linecap="round" stroke-miterlimit="10" stroke-width="4"/>
            <circle id="Ellipse_2" data-name="Ellipse 2" cx="13" cy="13" r="13" transform="translate(22 14)" fill="none" stroke="#0db9d7" stroke-linecap="round" stroke-miterlimit="10" stroke-width="4"/>
            <circle id="Ellipse_3" data-name="Ellipse 3" cx="1" cy="1" r="1" transform="translate(92 23)" stroke-width="4" stroke="#ff9e64" stroke-linecap="round" stroke-linejoin="round" stroke-miterlimit="10" fill="none"/>
            <circle id="Ellipse_4" data-name="Ellipse 4" cx="1" cy="1" r="1" transform="translate(83 90)" stroke-width="4" stroke="#ff9e64" stroke-linecap="round" stroke-linejoin="round" stroke-miterlimit="10" fill="none"/>
            <circle id="Ellipse_5" data-name="Ellipse 5" cx="5" cy="5" r="5" transform="translate(81 2)" stroke-width="4" stroke="#ff9e64" stroke-linecap="round" stroke-linejoin="round" stroke-miterlimit="10" fill="none"/>
            <path id="Path_1" data-name="Path 1" d="M2,48H94" fill="none" stroke="#0db9d7" stroke-linecap="round" stroke-miterlimit="10" stroke-width="4"/>
            <path id="Path_2" data-name="Path 2" d="M61,9H74" fill="none" stroke="#0db9d7" stroke-linecap="round" stroke-miterlimit="10" stroke-width="4"/>
            <path id="Path_3" data-name="Path 3" d="M71,24H86" fill="none" stroke="#0db9d7" stroke-linecap="round" stroke-miterlimit="10" stroke-width="4"/>
            <path id="Path_4" data-name="Path 4" d="M68,30H84" fill="none" stroke="#0db9d7" stroke-linecap="round" stroke-miterlimit="10" stroke-width="4"/>
            <path id="Path_5" data-name="Path 5" d="M68,16H78" fill="none" stroke="#0db9d7" stroke-linecap="round" stroke-miterlimit="10" stroke-width="4"/>
            <path id="Path_6" data-name="Path 6" d="M71,94H48" fill="none" stroke="#0db9d7" stroke-linecap="round" stroke-miterlimit="10" stroke-width="4"/>
            <path id="Path_7" data-name="Path 7" d="M90,75H75" fill="none" stroke="#0db9d7" stroke-linecap="round" stroke-miterlimit="10" stroke-width="4"/>
            <path id="Path_8" data-name="Path 8" d="M87,69H66" fill="none" stroke="#0db9d7" stroke-linecap="round" stroke-miterlimit="10" stroke-width="4"/>
            <path id="Path_9" data-name="Path 9" d="M82,82H72" fill="none" stroke="#0db9d7" stroke-linecap="round" stroke-miterlimit="10" stroke-width="4"/>
            <path id="Path_10" data-name="Path 10" d="M83,42H93.623" fill="none" stroke="#0db9d7" stroke-linecap="round" stroke-miterlimit="10" stroke-width="4"/>
            <path id="Path_11" data-name="Path 11" d="M86,59h6.612" fill="none" stroke="#0db9d7" stroke-linecap="round" stroke-miterlimit="10" stroke-width="4"/>
            <path id="Path_12" data-name="Path 12" d="M89,54h4.586" fill="none" stroke="#0db9d7" stroke-linecap="round" stroke-miterlimit="10" stroke-width="4"/>
            <path id="Path_13" data-name="Path 13" d="M52,83.78q-.912.1-1.837.156" fill="none" stroke="#0db9d7" stroke-linecap="round" stroke-miterlimit="10" stroke-width="4"/>
            <path id="Path_14" data-name="Path 14" d="M43,84A37.362,37.362,0,0,1,18.569,68.737" fill="none" stroke="#0db9d7" stroke-linecap="round" stroke-miterlimit="10" stroke-width="4"/>
            <path id="Path_15" data-name="Path 15" d="M83,54H81" fill="none" stroke="#0db9d7" stroke-linecap="round" stroke-miterlimit="10" stroke-width="4"/>
            <path id="Path_16" data-name="Path 16" d="M78,59H76" fill="none" stroke="#0db9d7" stroke-linecap="round" stroke-miterlimit="10" stroke-width="4"/>
            <path id="Path_17" data-name="Path 17" d="M60,69H58" fill="none" stroke="#0db9d7" stroke-linecap="round" stroke-miterlimit="10" stroke-width="4"/>
            <path id="Path_18" data-name="Path 18" d="M64,24H62" fill="none" stroke="#0db9d7" stroke-linecap="round" stroke-miterlimit="10" stroke-width="4"/>
            <path id="Path_19" data-name="Path 19" d="M69.175,88.873s8.492-3.665,12.159-22.578c0,0,.1-2.546,9.679-2.3h0a45.2,45.2,0,0,0,1.443-27.852l-.088-.324C83.167,36.583,79.333,34,79.333,34c-4-21.333-14.159-28.686-14.159-28.686l-.046-.019a45.992,45.992,0,1,0,4.047,83.578Z" fill="none" stroke="#0db9d7" stroke-linecap="round" stroke-linejoin="round" stroke-miterlimit="10" stroke-width="4"/>
          </g>
        </g>
      </g>
      <text id="_4" data-name="4" transform="translate(857 490)" fill="#0db9d7" font-size="80" font-family="JetBrainsMono-Regular, JetBrains Mono"><tspan x="0" y="78">4</tspan></text>
      <text id="_4-2" data-name="4" transform="translate(1014 490)" fill="#0db9d7" font-size="80" font-family="JetBrainsMono-Regular, JetBrains Mono"><tspan x="0" y="78">4</tspan></text>
    </g>
    <g id="Rectangle_1" data-name="Rectangle 1" transform="translate(752 466)" fill="none" stroke="#0db9d7" stroke-width="2">
      <rect width="416" height="148" rx="10" stroke="none"/>
      <rect x="1" y="1" width="414" height="146" rx="9" fill="none"/>
    </g>
    <g id="Group_2" data-name="Group 2" transform="translate(-160.629 196)">
      <rect id="Rectangle_2" data-name="Rectangle 2" width="146" height="57" transform="translate(966.629 237)" fill="#fff"/>
      <text id="ERROR" transform="translate(994.629 245)" fill="#ff9e64" font-size="30" font-family="JetBrainsMono-Regular, JetBrains Mono"><tspan x="0.5" y="29">ERROR</tspan></text>
    </g>
  </g>
</svg>
